<svg width="178" height="202" viewBox="0 0 178 202" fill="none" xmlns="http://www.w3.org/2000/svg">
<path d="M84.5 199.247L6.16541 154.021C3.3808 152.413 1.66541 149.442 1.66541 146.226L1.66542 55.7735C1.66542 52.5581 3.38081 49.587 6.16542 47.9793L84.5 2.75277C87.2846 1.14507 90.7154 1.14507 93.5 2.75277L171.835 47.9793C174.619 49.587 176.335 52.5581 176.335 55.7735L176.335 146.226C176.335 149.442 174.619 152.413 171.835 154.021L93.5 199.247C90.7154 200.855 87.2846 200.855 84.5 199.247Z" fill="#5CBFE9" stroke="#82B2EB" stroke-width="2"/>
<path d="M29.2428 80.9988C27.4903 81.9014 26.1247 82.6204 25.1466 83.1557C24.1699 83.6923 23.5456 84.0436 23.2754 84.2129C23.4112 84.1007 23.664 83.8191 24.0341 83.3672C24.4053 82.9163 24.8604 82.2967 25.3994 81.5063C26.3444 80.2665 27.1536 79.3641 27.827 78.7997C29.9176 76.8832 32.378 76.2068 35.2102 76.7697C34.1987 78.0674 32.2108 79.4763 29.2428 80.9988V80.9988ZM34.0977 117.961C29.7153 113.338 27.1188 108.291 26.3096 102.821C25.4339 97.014 26.1421 92.3897 28.4336 88.9495C30.7947 85.6231 34.5368 83.6209 39.6605 82.9443C40.0648 83.1134 40.6717 83.5363 41.4809 84.2129C42.0213 84.6649 42.459 85.0309 42.7956 85.3125C43.1338 85.5953 43.4025 85.7922 43.6048 85.9045C45.6957 87.3146 47.9887 87.85 50.4824 87.5118C50.1457 89.2602 49.8599 91.614 49.6227 94.5742C49.3873 97.5348 49.1345 101.159 48.8643 105.443C48.4594 113.338 47.8528 119.202 47.0436 123.036C42.998 124.559 38.6835 122.867 34.0977 117.961V117.961ZM96.0972 96.5618C96.772 97.1265 96.7386 97.6906 95.9959 98.2538C94.4457 98.5364 93.7709 98 93.9732 96.6465C94.648 95.9698 95.3559 95.9423 96.0972 96.5618V96.5618ZM97.513 94.1092L98.9291 94.1092C99.4695 94.5609 99.6039 95.0687 99.3337 95.6316C98.997 96.2527 98.3901 96.4498 97.513 96.2236L97.513 94.1092ZM111.774 94.5321C112.247 95.0394 112.415 95.7451 112.28 96.6465C111.066 96.9293 110.426 96.6465 110.358 95.8007C110.292 94.955 110.763 94.5321 111.774 94.5321V94.5321ZM71.8234 102.483C70.205 100.171 69.5319 97.2387 69.8004 93.6861C68.6548 92.8972 67.4236 92.0938 66.1088 91.2756C64.794 90.4589 63.3953 89.6262 61.9113 88.7804C59.6201 106.938 58.6083 126.504 58.8771 147.481C63.5976 149.567 71.0821 150.695 81.3305 150.864C80.7916 150.864 89.4564 150.695 107.324 150.356L110.358 123.459C110.628 124.419 110.881 127.054 111.117 131.368C111.354 135.681 111.572 141.729 111.774 149.511C114.606 149.624 117.101 149.088 119.259 147.904C119.731 144.351 120.001 140.249 120.068 135.597C120.136 130.945 119.966 125.715 119.562 119.907C119.023 111.336 118.585 104.711 118.247 100.03C117.91 95.3503 117.741 92.5588 117.741 91.6562C115.718 91.939 113.696 92.0658 111.673 92.0369C109.65 92.0091 107.627 91.8543 105.604 91.5717C100.952 90.895 97.7501 89.5415 95.9959 87.5118C95.6595 87.7946 94.9847 87.9346 93.9732 87.9346C92.8955 87.9346 92.2538 88.076 92.0515 88.3575C92.2538 93.7708 91.2423 98.226 89.0173 101.722C86.5235 105.669 82.9155 107.276 78.195 106.543C75.4993 106.149 73.3753 104.796 71.8234 102.483V102.483ZM101.963 154.924C90.3669 155.545 80.9259 155.63 73.6438 155.178C66.3616 154.727 61.1024 153.684 57.8656 152.048C55.5062 150.864 54.1235 147.904 53.7189 143.167C53.6528 142.209 53.6353 140.644 53.6684 138.473C53.7032 136.303 53.7868 133.524 53.9212 130.141C54.3937 121.063 54.9168 112.929 55.4888 105.739C56.0626 98.5497 56.72 92.1927 57.461 86.666C60.429 85.1434 63.0586 84.0436 65.3501 83.3672C65.7547 85.3971 66.6652 86.9196 68.081 87.9346C69.7673 89.1186 71.8234 89.4015 74.2507 88.7804C74.0484 93.1232 74.2176 96.2805 74.7563 98.2538C75.5655 101.017 77.3528 102.398 80.1167 102.398C83.6237 102.398 85.8156 100.114 86.691 95.547C86.8269 94.9272 86.9438 94.1092 87.0451 93.0941C87.1461 92.0792 87.2645 90.8394 87.3992 89.3724C87.5347 87.9637 87.652 86.765 87.753 85.7777C87.854 84.7919 87.9727 83.9882 88.1071 83.3672C89.1862 84.1007 90.7715 84.382 92.8607 84.2129C94.749 84.0436 96.2995 83.6209 97.513 82.9443C99.2672 85.9891 102.908 87.7099 108.437 88.1038C113.63 88.4988 118.045 87.6253 121.686 85.4818C121.822 86.7795 122.09 90.8672 122.495 97.746C122.9 104.626 123.44 114.297 124.113 126.758C124.452 132.792 124.654 137.487 124.72 140.841C124.788 144.196 124.755 146.269 124.619 147.058C123.743 151.513 116.191 154.135 101.963 154.924L101.963 154.924ZM69.4971 81.1681C68.8237 79.1948 68.081 77.8693 67.2718 77.1926C66.801 77.4186 66.2101 77.7 65.5019 78.0384C64.794 78.3768 63.9009 78.8288 62.8215 79.3919C60.7988 80.4636 59.2486 81.2247 58.1692 81.6754C54.3258 83.1979 50.4493 83.6209 46.538 82.9443C43.2351 80.3512 42.1223 75.7837 43.2002 69.2419C43.7407 66.423 44.6843 64.1391 46.0321 62.3907C47.5841 60.4176 49.4048 59.4303 51.4939 59.4303C52.371 59.4303 53.5514 59.8254 55.0337 60.6145C56.4498 61.4604 57.3948 61.8831 57.8656 61.8831C58.0015 61.4893 58.2371 60.8404 58.5738 59.9378C58.9119 59.0365 59.3496 57.8523 59.8886 56.3852C60.2932 55.2012 60.6978 54.1438 61.1024 53.2134C61.5067 52.283 61.8782 51.4795 62.2149 50.8029C64.3055 46.6876 67.3069 44.4592 71.2165 44.121C74.3186 43.8394 77.0164 44.6574 79.3078 46.5738C80.387 47.4765 82.1394 49.5342 84.567 52.7482C84.4326 50.2675 85.3098 48.2944 87.1969 46.8276C88.815 45.4743 91.04 44.6574 93.8719 44.3748C96.5697 44.2054 98.9291 44.6283 100.952 45.6434C103.313 46.8276 104.628 48.5191 104.896 50.7184C105.301 48.6885 106.55 47.138 108.639 46.0663C110.527 45.0512 112.583 44.6852 114.808 44.9668C117.506 45.1927 119.259 46.6876 120.068 49.4496C120.204 49.9015 120.321 50.6761 120.422 51.7756C120.523 52.8752 120.608 54.3277 120.675 56.1317C123.102 55.0043 125.193 54.8919 126.945 55.7932C128.497 56.5836 129.575 57.9369 130.182 59.8532C130.722 61.8831 130.654 63.7164 129.979 65.3511C129.238 67.2119 127.957 68.3961 126.136 68.9037C128.834 68.8481 130.925 69.5803 132.407 71.1027C133.689 72.456 134.161 74.1766 133.823 76.2622C133.554 78.2922 132.508 79.8436 130.687 80.9143C128.801 82.1552 126.305 82.4368 123.203 81.7601C122.732 81.591 122.361 81.2526 122.09 80.745C121.822 80.1821 121.518 79.8146 121.18 79.6455C120.034 81.3372 118.113 82.5783 115.415 83.3672C112.921 84.1007 110.393 84.2129 107.83 83.7054C105.2 83.1979 103.177 82.1274 101.761 80.4914C100.211 78.575 99.7731 76.2344 100.446 73.4709C99.9754 75.3886 98.896 76.9111 97.2097 78.0384C95.5916 78.9979 93.9067 79.4486 92.1528 79.3919C90.3321 79.3363 88.6475 78.7441 87.0956 77.6155C85.5454 76.4884 84.567 74.9657 84.1624 73.0482C84.028 73.8384 83.9096 74.7966 83.8083 75.924C83.7073 77.0526 83.5904 78.3212 83.4545 79.7301C83.3201 81.5354 83.2188 83.0157 83.1512 84.1708C83.0847 85.327 83.0166 86.1307 82.9489 86.5813C82.4099 91.9946 81.3305 95.8854 79.7124 98.2538C79.1055 96.7312 78.9709 92.7559 79.3078 86.3276C79.646 81.0278 78.9381 77.5601 77.1838 75.924C75.6334 76.3759 74.554 77.7568 73.9471 80.0686C73.2061 82.8318 72.4648 84.4958 71.7221 85.0587C70.9811 84.4958 70.2398 83.1979 69.4971 81.1681V81.1681ZM54.9327 55.7088C44.2797 54.1864 38.6835 59.8254 38.1434 72.6251C29.5809 73.5846 23.4446 76.911 19.7356 82.6059C16.4326 87.6809 15.3199 93.8845 16.3978 101.214C17.5452 108.263 20.276 114.607 24.5902 120.245C29.1084 126.166 34.4358 129.86 40.5707 131.325C41.0432 131.439 41.8521 131.524 42.9979 131.579C44.1453 131.636 45.6624 131.693 47.5492 131.748C44.1104 145.62 50.247 153.909 65.957 156.615C71.15 157.461 86.0841 157.434 110.763 156.531C106.651 157.434 102.251 158.096 97.5638 158.519C92.8781 158.942 87.8035 159.098 82.3417 158.984C71.8234 158.815 62.5182 157.744 54.4271 155.77C53.8881 156.729 57.1925 157.829 64.3386 159.068C73.7796 160.705 84.8372 161.352 97.513 161.014C112.415 160.563 122.125 158.675 126.642 155.347C129.61 153.035 131.228 148.356 131.497 141.306C131.497 140.348 131.193 134.146 130.586 122.698C129.441 101.947 128.632 89.7955 128.159 86.2429C130.586 86.1307 132.745 85.3415 134.632 83.8745C136.386 82.4658 137.6 80.6896 138.273 78.5459C139.959 73.6971 138.713 69.9476 134.531 67.2966C136.015 63.3502 135.914 59.7685 134.227 56.5545C132.407 53.2281 129.373 51.4239 125.125 51.1413C125.867 46.4614 123.675 43.3319 118.551 41.7526C113.63 40.1746 109.245 40.6821 105.402 43.2752C103.245 40.7944 99.536 39.7226 94.2765 40.0608C89.1531 40.3993 85.6131 41.7526 83.6568 44.121C80.8929 41.697 77.8584 40.3715 74.554 40.1455C71.4536 39.9208 68.3843 40.513 65.3501 41.9217C58.8106 45.0234 55.337 49.6189 54.9327 55.7088" fill="white"/>
</svg>
